<svg viewBox="0.0 0.0 512.0 512.0" fill="none" stroke-linecap="square" stroke-miterlimit="10" xmlns="http://www.w3.org/2000/svg" height="60" width="60"><defs><linearGradient id="pin" x1="0%" y1="0%" y2="0%"><stop offset="0%" stop-color="#2ecc71"/><stop offset="100%" stop-color="#00993e"/></linearGradient><linearGradient id="plus" x1="0%" y1="0%" y2="0%"><stop offset="0%" stop-color="#fff"/><stop offset="100%" stop-color="#fff"/></linearGradient></defs><clipPath id="p.0"><path d="M0 0h512v512H0V0z"/></clipPath><g clip-path="url(#p.0)"><path fill="none" d="M0 0h512v512H0z"/><path fill="url(#pin)" d="M20.709 256C20.709 130.227 126.052 28.268 256 28.268c62.403 0 122.25 23.993 166.376 66.701 44.126 42.708 68.915 100.633 68.915 161.031 0 125.773-105.343 227.732-235.291 227.732-129.948 0-235.291-101.959-235.291-227.732z"/><path fill="url(#plus)" d="M122.04 206.76h84.719v-76.005h98.482v76.004h84.72v98.482h-84.72v76.004h-98.482v-76.004h-84.72z"/><path fill="url(#plus)" d="M122.04 206.76h84.719v-76.005h98.482v76.004h84.72v98.482h-84.72v76.004h-98.482v-76.004h-84.72z"/></g></svg>