<?xml version="1.0" standalone="yes"?>

<svg version="1.1" viewBox="0.0 0.0 512.0 512.0" fill="none" stroke="none" stroke-linecap="square" stroke-miterlimit="10" xmlns="http://www.w3.org/2000/svg" xmlns:xlink="http://www.w3.org/1999/xlink" height="60" width="60">

  <defs>
  <linearGradient id="pin" x1="0%" y1="0%" x2="100%" y2="0%">
    <stop offset="0%" style="stop-color:rgb(46, 204, 113);stop-opacity:1" />
    <stop offset="100%" style="stop-color:rgb(0, 153, 62);stop-opacity:1" />
  </linearGradient>
  <linearGradient id="plus" x1="0%" y1="0%" x2="100%" y2="0%">
    <stop offset="0%" style="stop-color:#fff;stop-opacity:1" />
    <stop offset="100%" style="stop-color:#fff;stop-opacity:1" />
  </linearGradient>
  </defs>

  <clipPath id="p.0"><path d="m0 0l512.0 0l0 512.0l-512.0 0l0 -512.0z" clip-rule="nonzero"></path>
  </clipPath>

  <g clip-path="url(#p.0)">
    <path fill="#000000" fill-opacity="0.0" d="m0 0l512.0 0l0 512.0l-512.0 0z" fill-rule="nonzero"></path>
    <path fill="url(#pin)" d="m20.708662 256.0l0 0c0 -125.77307 105.34352 -227.73228 235.29134 -227.73228l0 0c62.403137 0 122.25043 23.993155 166.3761 66.70124c44.1257 42.70809 68.91525 100.63268 68.91525 161.03104l0 0c0 125.77307 -105.34354 227.73227 -235.29135 227.73227l0 0c-129.94781 0 -235.29134 -101.9592 -235.29134 -227.73227z" fill-rule="nonzero"></path>
    <path fill="url(#plus)" d="m122.03988 206.75905l84.71917 0l0 -76.00453l98.48192 0l0 76.00453l84.71915 0l0 98.48192l-84.71915 0l0 76.00452l-98.48192 0l0 -76.00452l-84.71917 0z" fill-rule="nonzero"></path>
    <path fill="url(#plus)" stroke-width="1.0" stroke-linejoin="round" stroke-linecap="butt" d="m122.03988 206.75905l84.71917 0l0 -76.00453l98.48192 0l0 76.00453l84.71915 0l0 98.48192l-84.71915 0l0 76.00452l-98.48192 0l0 -76.00452l-84.71917 0z" fill-rule="nonzero"></path>
  </g>
</svg>
